<svg xmlns="http://www.w3.org/2000/svg" version="1.1" viewBox="-5.0 -10.0 110.0 135.0">
 <path d="m97.105 65.797v4.293l2.8945-1.3672z"/>
 <path d="m44.797 72.73 6.7031-3.1055-41.137-43.246-2.0977 0.9375c-1.1836 0.52734-2.2656 1.1992-3.2305 1.9922l21.523 22.75 11.176 11.805c0.17578 0.18359 0.25391 0.43359 0.22656 0.68359-0.03125 0.25391-0.16797 0.47656-0.37891 0.61328-0.37891 0.25391-9.1641 6.2539-4.5977 15.762l5.043 5.4102c-0.18359-0.83203-0.27734-1.6875-0.27734-2.5508 0-4.8047 2.7031-9.0391 7.0469-11.051z"/>
 <path d="m35.844 64.348-10.035-10.602c-1.8906 1.4961-7.5312 6.8672-3.832 15.367 0 0 0 0.003907 0.003907 0.003907l8.2188 8.8164c-1.332-7.0469 3.6484-11.941 5.6445-13.586z"/>
 <path d="m24.645 52.508-9.8906-10.449c-1.4844 0.92578-5.4258 3.8867-5.4258 9.25 0 1.6445 0.37109 3.5117 1.2969 5.6133l0.003906 0.003906 8.668 9.2969c-1.3789-7.2852 3.3945-12.09 5.3477-13.715z"/>
 <path d="m13.574 40.809-9.7852-10.336c-1.7578 1.8516-2.9727 4.1836-3.5039 6.7969-0.90625 4.4688 0.35547 8.9453 3.4609 12.281l4.1484 4.4492c-1.4922-7.4219 3.5117-11.719 5.6797-13.191z"/>
 <path d="m53.738 7.0039-41.723 18.637 41.117 43.227 42.715-19.789 0.070313-0.035156 1.8438-0.85156zm-25.801 26.664c-0.32812 0-0.63672-0.1875-0.78125-0.50391-0.19141-0.42969 0-0.93359 0.43359-1.125l31.629-14.129c0.42969-0.19531 0.93359 0 1.125 0.42969 0.19141 0.42969 0 0.93359-0.42969 1.125l-31.633 14.125c-0.11328 0.054687-0.22656 0.078125-0.34375 0.078125zm6.9453 8.1719c-0.32422 0-0.63672-0.1875-0.77734-0.50391-0.19141-0.42969 0-0.93359 0.42969-1.125l31.629-14.129c0.42969-0.19531 0.93359 0 1.1289 0.42969 0.19141 0.42969-0.003907 0.93359-0.43359 1.125l-31.629 14.129c-0.11328 0.050781-0.23047 0.074219-0.34766 0.074219zm7.8984 7.668c-0.32812 0-0.63672-0.1875-0.78125-0.50391-0.19141-0.42969 0.003906-0.93359 0.43359-1.1289l31.625-14.129c0.42969-0.19141 0.93359 0.003906 1.125 0.43359 0.19141 0.42969 0 0.93359-0.42969 1.125l-31.625 14.129c-0.11719 0.050781-0.23438 0.074218-0.34766 0.074218zm39.891-6.3477-31.629 14.133c-0.11328 0.046875-0.23047 0.070312-0.34766 0.070312-0.32422 0-0.63672-0.1875-0.77734-0.50391-0.19141-0.42969 0-0.93359 0.42969-1.125l31.629-14.129c0.43359-0.19141 0.93359 0 1.1289 0.42969 0.19141 0.42969-0.003907 0.93359-0.43359 1.125z"/>
 <path d="m53.246 70.695-7.7344 3.5859c-3.7344 1.7305-6.0586 5.3672-6.0586 9.5 0 2.5352 0.92578 4.9727 2.6055 6.8789 0.007812 0.011719 0.015625 0.015625 0.023437 0.027344 0.027344 0.03125 0.058594 0.0625 0.089844 0.09375l0.11719 0.125 0.050782 0.050781 0.039062 0.042969c1.9883 2.0234 5.0391 2.5664 7.6016 1.3594l0.003906-0.003906 7.3867-3.4883 3.7969-1.7969c-0.42188-1.9414-1.0508-3.5234-1.6055-4.668l-9.2812 4.3867c-0.11719 0.054688-0.24219 0.082032-0.36328 0.082032-0.31641 0-0.625-0.17969-0.76953-0.48828-0.20313-0.42578-0.015626-0.93359 0.40625-1.1367l9.9844-4.7188c0-0.003906 0.003907-0.003906 0.003907-0.003906 0.03125-0.015626 0.066406-0.035157 0.097656-0.042969l8.4375-3.9922c0.003906-0.003906 0.011719-0.003906 0.011719-0.007812l25.203-11.91c0.42578-0.20312 0.93359-0.019531 1.1367 0.40625 0.20312 0.42578 0.015624 0.93359-0.41016 1.1367l-24.348 11.508-1.5469 0.73047-7.0234 3.3203c0.66406 1.3711 1.418 3.3086 1.8672 5.7031 0.003906 0.011719 0.003906 0.015625 0.007812 0.027344 0.003907 0.019531 0.007813 0.042968 0.011719 0.066406 0.33594 1.8008 0.45312 3.6328 0.35547 5.4805l2.668-3.2344c0.27734-0.33594 0.75391-0.41016 1.1172-0.17578l2.9062 1.8555c0.14453-1.6797 0.28125-4.707-0.19922-7.7383-0.003907-0.011719-0.003907-0.027344-0.007813-0.039062-0.035156-0.35156 0.14844-0.70313 0.48438-0.86328l1.0078-0.47266 24.078-11.379v-19.738l-42.074 19.496zm41.188-12.371c0.19531 0.42969 0.007812 0.93359-0.41797 1.1328l-43.742 20.066c-0.11719 0.050781-0.23828 0.078124-0.35938 0.078124-0.32031 0-0.63281-0.18359-0.77344-0.49609-0.19922-0.42578-0.011719-0.93359 0.41797-1.1289l43.738-20.07c0.43359-0.19531 0.9375-0.007812 1.1367 0.41797z"/>
<text x="0.0" y="117.5" font-size="5.0" font-weight="bold" font-family="Arbeit Regular, Helvetica, Arial-Unicode, Arial, Sans-serif" fill="#000000">Created by ABDUL LATIF</text><text x="0.0" y="122.5" font-size="5.0" font-weight="bold" font-family="Arbeit Regular, Helvetica, Arial-Unicode, Arial, Sans-serif" fill="#000000">from Noun Project</text></svg>